<?xml version="1.0" encoding="utf-8"?>
<!-- Generator: Adobe Illustrator 16.0.0, SVG Export Plug-In . SVG Version: 6.00 Build 0)  -->
<!DOCTYPE svg PUBLIC "-//W3C//DTD SVG 1.1//EN" "http://www.w3.org/Graphics/SVG/1.1/DTD/svg11.dtd">
<svg version="1.1" id="Layer_1" xmlns="http://www.w3.org/2000/svg" xmlns:xlink="http://www.w3.org/1999/xlink" x="0px" y="0px"
	 width="178.563px" height="81px" viewBox="0 0 178.563 81" enable-background="new 0 0 178.563 81" xml:space="preserve">
<g>
	<path fill="#ED1C24" d="M7.809,75.021l1.371,0.351c-0.287,1.13-0.805,2.001-1.552,2.595c-0.748,0.596-1.662,0.895-2.741,0.895
		c-1.119,0-2.027-0.229-2.728-0.688c-0.7-0.458-1.235-1.121-1.601-1.991c-0.364-0.87-0.547-1.805-0.547-2.804
		c0-1.083,0.208-2.033,0.619-2.842c0.412-0.812,1-1.425,1.762-1.846c0.763-0.421,1.6-0.632,2.515-0.632
		c1.037,0,1.911,0.269,2.618,0.8c0.708,0.531,1.2,1.277,1.479,2.244l-1.351,0.319c-0.239-0.757-0.589-1.311-1.047-1.66
		c-0.458-0.346-1.032-0.52-1.726-0.52c-0.797,0-1.464,0.193-1.998,0.58c-0.536,0.381-0.913,0.899-1.129,1.55
		c-0.218,0.646-0.326,1.315-0.326,2.004c0,0.886,0.129,1.664,0.387,2.328c0.256,0.662,0.656,1.156,1.197,1.483
		c0.544,0.327,1.131,0.49,1.764,0.49c0.769,0,1.418-0.22,1.952-0.668C7.259,76.562,7.621,75.9,7.809,75.021"/>
	<polygon fill="#ED1C24" points="10.913,78.685 10.913,68.238 12.286,68.238 12.286,72.531 17.679,72.531 17.679,68.238 
		19.05,68.238 19.05,78.685 17.679,78.685 17.679,73.757 12.286,73.757 12.286,78.685 	"/>
	<path fill="#ED1C24" d="M30.639,69.729v-1.491h1.366v1.175c0,0.746-0.086,1.266-0.255,1.562c-0.468,0.821-1.211,1.256-2.237,1.304
		v1.994c0,1.073-0.117,1.905-0.354,2.501c-0.244,0.624-0.669,1.125-1.272,1.503c-0.619,0.392-1.427,0.585-2.427,0.585
		c-1.929,0-3.166-0.66-3.708-1.97c-0.264-0.638-0.396-1.51-0.396-2.62v-6.034h1.374v6.03c0,0.897,0.083,1.566,0.252,2.011
		c0.161,0.418,0.447,0.749,0.858,0.984c0.41,0.238,0.909,0.353,1.499,0.353c1.034,0,1.752-0.229,2.159-0.69
		c0.428-0.487,0.644-1.372,0.644-2.657v-6.03h1.371v3.512c0.736-0.073,1.27-0.368,1.6-0.882c0.127-0.197,0.192-0.581,0.192-1.14
		H30.639z M24.562,67.597l0.941-1.995h1.669l-1.555,1.995H24.562z"/>
	<polygon fill="#ED1C24" points="33.696,78.685 33.696,68.238 35.103,68.238 40.551,76.438 40.551,68.238 41.867,68.238 
		41.867,78.685 40.46,78.685 35.011,70.476 35.011,78.685 	"/>
	<path fill="#ED1C24" d="M49.027,74.587V73.36l4.396-0.006v3.877c-0.677,0.54-1.371,0.946-2.088,1.22
		c-0.719,0.275-1.453,0.41-2.209,0.41c-1.018,0-1.944-0.219-2.776-0.659c-0.831-0.438-1.462-1.074-1.886-1.906
		c-0.425-0.832-0.636-1.761-0.636-2.787c0-1.016,0.209-1.964,0.633-2.846c0.423-0.879,1.03-1.536,1.822-1.965
		c0.791-0.425,1.704-0.639,2.737-0.639c0.751,0,1.429,0.122,2.036,0.368c0.604,0.245,1.079,0.584,1.424,1.024
		c0.343,0.433,0.607,1.003,0.785,1.707l-1.238,0.344c-0.155-0.533-0.348-0.951-0.579-1.256c-0.232-0.303-0.563-0.548-0.991-0.729
		c-0.43-0.184-0.905-0.275-1.43-0.275c-0.627,0-1.169,0.097-1.627,0.288c-0.457,0.192-0.826,0.447-1.108,0.761
		c-0.278,0.313-0.498,0.657-0.655,1.03c-0.261,0.647-0.394,1.348-0.394,2.104c0,0.929,0.157,1.71,0.477,2.334
		c0.318,0.629,0.782,1.093,1.392,1.4c0.607,0.305,1.254,0.455,1.938,0.455c0.594,0,1.175-0.114,1.739-0.343
		c0.567-0.235,0.995-0.477,1.29-0.74v-1.945H49.027z"/>
	<polygon fill="#ED1C24" points="59.413,78.685 59.413,68.238 60.787,68.238 60.787,73.416 65.937,68.238 67.797,68.238 
		63.447,72.471 67.988,78.685 66.175,78.685 62.484,73.397 60.787,75.065 60.787,78.685 	"/>
	<polygon fill="#ED1C24" points="69.178,78.685 69.178,68.238 70.549,68.238 70.549,72.531 75.941,72.531 75.941,68.238 
		77.314,68.238 77.314,78.685 75.941,78.685 75.941,73.757 70.549,73.757 70.549,78.685 	"/>
	<path fill="#ED1C24" d="M79.181,73.594c0-1.733,0.464-3.089,1.388-4.069c0.925-0.982,2.117-1.472,3.579-1.472
		c0.96,0,1.821,0.229,2.591,0.689c0.769,0.461,1.354,1.105,1.756,1.929c0.403,0.822,0.604,1.759,0.604,2.804
		c0,1.06-0.211,2.007-0.635,2.842c-0.425,0.835-1.026,1.47-1.805,1.897c-0.777,0.431-1.618,0.646-2.518,0.646
		c-0.978,0-1.85-0.237-2.619-0.712c-0.769-0.475-1.352-1.123-1.747-1.945C79.379,75.382,79.181,74.51,79.181,73.594 M80.596,73.62
		c0,1.258,0.338,2.249,1.009,2.972c0.673,0.725,1.515,1.085,2.529,1.085c1.034,0,1.882-0.363,2.551-1.094
		c0.666-0.73,1-1.769,1-3.114c0-0.851-0.143-1.591-0.428-2.228c-0.285-0.634-0.702-1.125-1.252-1.475
		c-0.55-0.35-1.166-0.524-1.85-0.524c-0.973,0-1.808,0.336-2.509,1.009C80.947,70.924,80.596,72.047,80.596,73.62"/>
	<path fill="#ED1C24" d="M89.731,78.685l3.982-10.447h1.479l4.246,10.447h-1.563l-1.213-3.167h-4.337l-1.139,3.167H89.731z
		 M92.724,74.395h3.516l-1.084-2.893c-0.327-0.881-0.576-1.604-0.732-2.168c-0.135,0.672-0.32,1.338-0.562,1.996L92.724,74.395z
		 M93.579,67.597l0.942-1.995h1.669l-1.557,1.995H93.579z"/>
	<polygon fill="#ED1C24" points="100.522,78.685 100.522,68.238 101.927,68.238 107.375,76.438 107.375,68.238 108.691,68.238 
		108.691,78.685 107.284,78.685 101.835,70.476 101.835,78.685 	"/>
	<polygon fill="#ED1C24" points="117.399,78.685 117.399,69.471 113.984,69.471 113.984,68.238 122.207,68.238 122.207,69.471 
		118.775,69.471 118.775,78.685 	"/>
	<path fill="#ED1C24" d="M122.474,78.686l3.984-10.447h1.475l4.248,10.447h-1.564l-1.209-3.167h-4.34l-1.139,3.167H122.474z
		 M127.193,66.386l-0.803,1.211h-1.455l1.527-1.995h1.359l1.592,1.995h-1.441L127.193,66.386z M125.464,74.394h3.518l-1.082-2.892
		c-0.328-0.882-0.576-1.604-0.734-2.168c-0.133,0.672-0.32,1.337-0.561,1.996L125.464,74.394z"/>
	<polygon fill="#ED1C24" points="133.261,78.685 133.261,68.238 134.671,68.238 140.119,76.438 140.119,68.238 141.433,68.238 
		141.433,78.685 140.027,78.685 134.58,70.476 134.58,78.685 	"/>
	<path fill="#ED1C24" d="M150.732,78.685l-4.02-10.447h1.484l2.695,7.587c0.219,0.61,0.4,1.18,0.547,1.711
		c0.158-0.567,0.346-1.138,0.559-1.711l2.803-7.587h1.4l-4.061,10.447H150.732z"/>
	<rect x="157.666" y="68.239" fill="#ED1C24" width="1.369" height="10.447"/>
	<path fill="#ED1C24" d="M161.486,78.686V68.239h7.498v1.232h-6.127v3.199h5.738v1.228h-5.738v3.554h6.369v1.233H161.486z
		 M164.626,79.538h1.451V81h-1.451V79.538z"/>
	<polygon fill="#ED1C24" points="173.761,78.685 173.761,69.471 170.343,69.471 170.343,68.238 178.562,68.238 178.562,69.471 
		175.134,69.471 175.134,78.685 	"/>
	<path fill="#ED1C24" d="M52.417,30.305L28.869,53.802l-0.002,0.003l-0.002,0L11.28,36.218l17.837-17.838l3.35,3.274L18.146,35.973
		l10.721,10.799l21.38-21.351h7.372C55.885,11.099,43.689,0,28.898,0C13.388,0,0.728,12.208,0,27.538h5.381l1.103-1.093
		L28.867,4.063l15.976,15.977l1.61,1.609L28.616,39.486l-3.265-3.266L39.669,21.9L28.867,11.098L7.551,32.412v0.008H0.175
		c1.722,14.336,13.924,25.447,28.723,25.447c15.521,0,28.186-12.22,28.899-27.562H52.417z"/>
	<path fill="#231F20" d="M62.998,14.691l0.662-4.172h31.246l1.995,4.262c0,0-5.852-1.53-10.342-1.31h-3.053v26.817
		c0,0.271,0.017,0.697,0.051,1.272c0.136,2.171,0.408,4.037,0.813,5.597H74.194c0.575-2.103,0.866-4.391,0.866-6.869V13.472h-3.055
		c-1.019,0-2.901,0.187-5.648,0.558c-0.305,0.034-0.78,0.104-1.425,0.205l-0.916,0.204L62.998,14.691z"/>
	<path fill="#231F20" d="M96.901,10.52h11.604c-0.103,1.663,0.133,3.325,0.71,4.986l0.508,1.477l0.664,1.68l7.836,20.354
		l7.277-22.595c0.369-1.221,0.559-2.306,0.559-3.255c0-0.848-0.172-1.732-0.508-2.647h8.393c-1.117,1.112-2.424,3.631-2.898,4.986
		l-0.254,0.712l-1.018,2.394c-0.373,0.847-1.17,2.899-2.393,6.156c-3.527,9.363-6.158,16.826-7.887,22.39h-7.581
		c-1.798-5.426-4.647-12.89-8.548-22.39c-0.613-1.324-1.476-3.36-2.596-6.105l-0.154-0.409l-0.151-0.354l-2.14-4.733
		C98.056,12.589,97.581,11.707,96.901,10.52"/>
	<path fill="#231F20" d="M135.818,45.11l0.898-5.013c0.984,0.883,1.961,1.534,3.082,2.177c2.576,1.493,5.002,2.237,7.275,2.237
		c1.799,0,3.324-0.498,4.58-1.499c1.254-1.002,1.883-2.367,1.883-4.097c0-1.833-1.609-3.731-4.834-5.699l-3.51-2.137
		c-3.258-1.967-5.514-3.768-6.77-5.396c-1.188-1.525-1.799-3.323-1.832-5.393c-0.035-2.816,0.951-5.149,2.953-6.997
		c2-1.849,4.85-2.943,8.549-3.283c1.863-0.168,4.207-0.035,7.021,0.406c0.305,0.07,0.797,0.172,1.477,0.306l1.221,0.205L160,11.181
		l0.609,5.395l-0.66-0.458l-0.713-0.457c-2.918-1.901-5.646-2.851-8.193-2.851c-1.596,0-2.936,0.422-4.018,1.272
		c-1.223,0.916-1.832,2.172-1.832,3.765c0,0.918,0.252,1.78,0.762,2.596c0.713,1.223,2.611,2.715,5.699,4.478
		c0.34,0.17,0.846,0.441,1.529,0.816c0.676,0.374,1.234,0.694,1.676,0.965c1.934,1.12,3.41,2.138,4.428,3.054
		c1.936,1.765,2.9,3.953,2.9,6.566c0,1.865-0.549,3.663-1.654,5.393c-1.102,1.73-2.688,3.139-4.758,4.224
		c-2.746,1.425-6.004,2.067-9.77,1.932c-1.561-0.068-3.646-0.492-6.26-1.271c-0.645-0.204-1.168-0.373-1.578-0.509l-0.863-0.303
		L135.818,45.11z"/>
	<path fill="#231F20" d="M168.242,47.158c0.441-1.356,0.713-2.951,0.816-4.781l0.049-0.255l0.053-2.699l-0.053-23.966
		c-0.068-1.934-0.355-3.579-0.865-4.937h10.23c-0.545,1.698-0.814,3.342-0.814,4.937l-0.051,3.104l0.1,23.764
		c0.068,1.731,0.324,3.344,0.766,4.834H168.242z"/>
	<polygon fill="#ED1C24" points="165.576,66.386 164.775,67.596 163.32,67.596 164.845,65.602 166.207,65.602 167.798,67.596 
		166.355,67.596 	"/>
</g>
</svg>
